HIERARCHY
ROOT Hips
{
	OFFSET 0.00000 0.00000 0.00000
	CHANNELS 6 Xposition Yposition Zposition Yrotation Zrotation Xrotation 
	JOINT Lumbar
	{
		OFFSET 0 0 0
		CHANNELS 3 Zrotation Xrotation Yrotation
		JOINT Neck
		{
			OFFSET 0.00 0.2701 0.00
			CHANNELS 3 Zrotation Xrotation Yrotation
			End Site
			{
				OFFSET 0.00 0.1379 0.00
			}
		}
		JOINT RightShoulder
		{
			OFFSET 0.0119 0.2289 0.1181
			CHANNELS 3 Zrotation Xrotation Yrotation
			JOINT RightElbow
			{
				OFFSET 0.00 -0.1475 0.00
				CHANNELS 2 Zrotation Yrotation
				JOINT RightWrist
				{
					OFFSET 0.00 -0.1605 0.00
					CHANNELS 2 Zrotation Xrotation
					End Site
					{
						OFFSET 0.0040 -0.1068 0.0006
					}
				}
			}
		}
		JOINT LeftShoulder
		{
			OFFSET 0.0119 0.2289 -0.1181
			CHANNELS 3 Zrotation Xrotation Yrotation
			JOINT LeftElbow
			{
				OFFSET 0.00 -0.1475 0.00
				CHANNELS 2 Zrotation Yrotation
				JOINT LeftWrist
				{
					OFFSET 0.00 -0.1605 0.00
					CHANNELS 2 Zrotation Xrotation
					End Site
					{
						OFFSET 0.0040 -0.1068 -0.0006
					}
				}
			}
		}
	}
	JOINT RightHip
	{
		OFFSET 0.0316 -0.0424 0.0458
		CHANNELS 3 Zrotation Xrotation Yrotation
		JOINT RightKnee
		{
			OFFSET 0.00 -0.2438 0.00
			CHANNELS 1 Zrotation
			JOINT RightAnkle
			{
				OFFSET 0.00 -0.2449 0.00
				CHANNELS 3 Zrotation Xrotation Yrotation
				End Site
				{
					OFFSET 0.1237 -0.0542 0.0051
				}
			}
		}
	}
	JOINT LeftHip
	{
		OFFSET 0.0316 -0.0424 -0.0458
		CHANNELS 3 Zrotation Xrotation Yrotation
		JOINT LeftKnee
		{
			OFFSET 0.00 -0.2438 0.00
			CHANNELS 1 Zrotation
			JOINT LeftAnkle
			{
				OFFSET 0.00 -0.2449 0.00
				CHANNELS 3 Zrotation Xrotation Yrotation
				End Site
				{
					OFFSET 0.1237 -0.0542 -0.0051
				}
			}
		}
	}
}
MOTION
Frames: 19
Frame Time: 0.02
-0.00021 -0.00025 -0.00043 23.94815 -20.63706 -6.43192 44.44265 1.67727 -3.99436 -10.19006 -1.89451 -0.98501 -22.11888 -6.96977 -5.35185 31.52262 131.96934 14.68728 9.64451 -28.06881 10.64023 6.27005 29.39812 -113.21236 18.19707 -3.12308 31.87606 0.95026 -15.0436 -20.03036 -7.09826 -2.45893 -3.43641 34.49399 5.71156 9.25649 -26.54828 -7.58724 3.01551 3.73159
-0.00034 -0.00027 -0.00025 23.97645 -20.64912 -6.43962 44.43541 1.66126 -4.02484 -10.28258 -1.88633 -0.98689 -22.44445 -7.11619 -5.23253 31.31984 127.7056 13.92172 8.68338 -28.22649 10.6524 6.26889 29.45274 -113.06818 18.22469 -3.12026 31.916 0.97439 -14.98381 -20.03392 -7.10103 -2.46085 -3.43938 34.54443 5.66779 9.00774 -26.55658 -7.60225 3.03441 3.74312
-0.00047 -0.0003 -7e-05 24.00472 -20.66111 -6.44729 44.42814 1.6453 -4.05537 -10.37487 -1.87827 -0.98876 -22.7692 -7.26231 -5.11348 31.11813 123.45497 13.15859 7.72522 -28.38334 10.66449 6.26724 29.50758 -112.92407 18.25215 -3.11735 31.9558 0.99845 -14.92428 -20.03747 -7.10379 -2.46276 -3.44234 34.5947 5.62421 8.75997 -26.56486 -7.6172 3.05322 3.7546
-0.00059 -0.00032 0.00011 24.03295 -20.67312 -6.45496 44.42091 1.62933 -4.08579 -10.46712 -1.87013 -0.99063 -23.09382 -7.4083 -4.99453 30.91603 119.20436 12.3954 6.76706 -28.5405 10.67662 6.26602 29.56208 -112.78029 18.27968 -3.11453 31.99562 1.0225 -14.86469 -20.04102 -7.10655 -2.46467 -3.4453 34.64498 5.58058 8.512 -26.57314 -7.63217 3.07206 3.7661
-0.00072 -0.00035 0.00028 24.06118 -20.68521 -6.46265 44.41372 1.61333 -4.1161 -10.55956 -1.86184 -0.9925 -23.41914 -7.55453 -4.87531 30.71272 114.94066 11.62973 5.80592 -28.69858 10.68883 6.26544 29.61622 -112.63653 18.3074 -3.11182 32.03557 1.04664 -14.80481 -20.04458 -7.10932 -2.46659 -3.44827 34.69542 5.53674 8.263 -26.58146 -7.64719 3.09099 3.77764
-0.00084 -0.00037 0.00046 24.08954 -20.69699 -6.47027 44.40626 1.59745 -4.1471 -10.65152 -1.85426 -0.99437 -23.74262 -7.70045 -4.75659 30.51439 110.71774 10.87198 4.85409 -28.85279 10.70067 6.2615 29.67257 -112.49167 18.33431 -3.1085 32.07505 1.07051 -14.74601 -20.0481 -7.11207 -2.46849 -3.45121 34.74534 5.49372 8.01784 -26.58966 -7.662 3.10957 3.78899
-0.00097 -0.0004 0.00064 24.11761 -20.70937 -6.47804 44.39939 1.58134 -4.17667 -10.74439 -1.84526 -0.99624 -24.06959 -7.84677 -4.63712 30.30623 106.41763 10.0992 3.88464 -29.01475 10.71325 6.26447 29.72434 -112.34929 18.36284 -3.10641 32.11543 1.0949 -14.68513 -20.05169 -7.11486 -2.47043 -3.45421 34.79625 5.44908 7.76515 -26.59808 -7.67723 3.12883 3.80073
-0.00109 -0.00042 0.00082 24.14593 -20.72121 -6.48566 44.39193 1.56545 -4.20759 -10.83634 -1.83759 -0.99811 -24.39311 -7.99282 -4.5181 30.10719 102.18832 9.34017 2.93133 -29.16933 10.72516 6.26078 29.78046 -112.20446 18.38982 -3.1032 32.15502 1.1188 -14.62611 -20.05523 -7.11761 -2.47233 -3.45715 34.84627 5.40596 7.51956 -26.6063 -7.69207 3.14744 3.81209
-0.00122 -0.00045 0.00099 24.17466 -20.73237 -6.49312 44.38389 1.54978 -4.24007 -10.92754 -1.83148 -1 -24.71347 -8.13825 -4.40055 29.91907 98.0453 8.59809 1.99778 -29.31582 10.73618 6.25 29.84149 -112.05714 18.41513 -3.09858 32.19351 1.14216 -14.56958 -20.05865 -7.12032 -2.47419 -3.46004 34.89513 5.36458 7.28196 -26.61427 -7.70645 3.16534 3.82304
-0.00134 -0.00048 0.00117 24.20137 -20.74736 -6.50161 44.3796 1.53268 -4.26332 -11.02417 -1.81616 -1.00182 -25.05523 -8.28641 -4.27728 29.66744 93.40492 7.75887 0.95059 -29.51166 10.75213 6.28314 29.87305 -111.92563 18.45072 -3.10191 32.23793 1.16877 -14.49938 -20.0626 -7.12326 -2.4763 -3.46329 34.95043 5.31285 6.9963 -26.62365 -7.72354 3.18759 3.83651
-0.00147 -0.0005 0.00134 24.23208 -20.75432 -6.50783 44.36717 1.51869 -4.30616 -11.10862 -1.82043 -1.00377 -25.34973 -8.42928 -4.16438 29.55022 89.81475 7.1244 0.14319 -29.60163 10.75778 6.22171 29.96752 -111.75988 18.46422 -3.08859 32.27008 1.18846 -14.45761 -20.06551 -7.12572 -2.47787 -3.46575 34.99227 5.28318 6.81338 -26.63009 -7.73484 3.20052 3.84458
-0.00162 -0.00048 0.0015 24.27598 -20.73865 -6.50846 44.33383 1.51261 -4.40249 -11.16517 -1.87775 -1.00608 -25.53042 -8.55379 -4.09393 29.80214 89.12692 7.05879 -0.0001 -29.41234 10.73404 5.91367 30.23099 -111.50661 18.41967 -3.0279 32.26615 1.18932 -14.49845 -20.06493 -7.12684 -2.47803 -3.46606 34.99587 5.31262 6.90342 -26.62809 -7.73068 3.18883 3.8382
-0.00177 -0.00046 0.00165 24.32342 -20.71506 -6.50669 44.29205 1.50978 -4.51852 -11.2084 -1.95483 -1.00853 -25.66057 -8.67369 -4.03128 30.18901 89.49001 7.19756 0.09631 -29.11468 10.70023 5.50824 30.55854 -111.21789 18.35244 -2.95074 32.25034 1.18315 -14.56738 -20.06341 -7.12747 -2.4776 -3.46555 34.98623 5.36439 7.09777 -26.62324 -7.72065 3.16766 3.82635
-0.00193 -0.00044 0.0018 24.36787 -20.69549 -6.50557 44.25314 1.50586 -4.62572 -11.25417 -2.0234 -1.01091 -25.80369 -8.79826 -3.95594 30.51385 89.35857 7.23807 0.07897 -28.85919 10.67165 5.13901 30.85886 -110.94097 18.29391 -2.88226 32.24151 1.18012 -14.61997 -20.06273 -7.12834 -2.47744 -3.46541 34.98345 5.40695 7.25089 -26.61995 -7.71299 3.15015 3.8167
-0.00206 -0.00042 0.00195 24.41842 -20.67407 -6.50623 44.21822 1.50025 -4.73251 -11.31496 -2.09025 -1.01329 -25.98955 -8.91207 -3.91926 30.84174 89.30003 7.30127 0.08223 -28.63319 10.63996 4.80377 31.1504 -110.68157 18.24218 -2.80889 32.22593 1.17743 -14.68612 -20.06032 -7.12917 -2.47744 -3.46535 34.97693 5.44594 7.38027 -26.61547 -7.70648 3.13514 3.80811
-0.00225 -0.0004 0.00211 24.45679 -20.65471 -6.5027 44.17307 1.49899 -4.84472 -11.34106 -2.16509 -1.01572 -26.07359 -9.04704 -3.80385 31.19548 89.33962 7.3662 0.09967 -28.32031 10.61277 4.37444 31.47659 -110.37803 18.17087 -2.74158 32.22165 1.1722 -14.73266 -20.06126 -7.12994 -2.47677 -3.46484 34.97523 5.49721 7.58118 -26.61284 -7.69629 3.11293 3.79615
-0.00257 -0.00042 0.00228 24.46341 -20.6424 -6.48762 44.10102 1.50827 -4.96795 -11.27676 -2.25949 -1.01828 -25.89608 -9.24271 -3.46952 31.58516 89.38199 7.3804 0.09433 -27.79283 10.5972 3.71147 31.87252 -109.95155 18.05075 -2.69627 32.25123 1.16339 -14.70026 -20.07212 -7.13095 -2.47611 -3.46412 34.98869 5.58075 7.97674 -26.61554 -7.67644 3.07091 3.77507
-0.00294 -0.00044 0.00245 24.45716 -20.63256 -6.46849 44.01914 1.5219 -5.0958 -11.17767 -2.3608 -1.02088 -25.61657 -9.45955 -3.05561 31.99658 89.48869 7.3902 0.09554 -27.18213 10.58726 2.95693 32.30303 -109.48143 17.91126 -2.65702 32.29264 1.15208 -14.64986 -20.0863 -7.13189 -2.47455 -3.46285 35.00769 5.67524 8.43671 -26.62027 -7.65327 3.02236 3.75097
-0.00329 -0.00045 0.00263 24.45502 -20.622 -6.45158 43.94219 1.53404 -5.22092 -11.09304 -2.45747 -1.02346 -25.37896 -9.66604 -2.67785 32.3996 89.57267 7.40561 0.09582 -26.61014 10.57672 2.24257 32.72442 -109.04051 17.78151 -2.61464 32.32879 1.14061 -14.62027 -20.09871 -7.13268 -2.47219 -3.46123 35.0251 5.76211 8.85193 -26.62438 -7.63226 2.97827 3.72902
